<?xml version="1.0" encoding="UTF-8" standalone="no"?>
<svg width="410px" height="410px" viewBox="0 0 410 410" version="1.1" xmlns="http://www.w3.org/2000/svg" xmlns:xlink="http://www.w3.org/1999/xlink" xmlns:sketch="http://www.bohemiancoding.com/sketch/ns">
    <!-- Generator: Sketch 3.4.4 (17249) - http://www.bohemiancoding.com/sketch -->
    <title>FAK_WZW_RGB</title>
    <desc>Created with Sketch.</desc>
    <defs></defs>
    <g id="TUM_Fakultätszeichen" stroke="none" stroke-width="1" fill="none" fill-rule="evenodd" sketch:type="MSPage">
        <g id="Blau---BASIS-Konstruktion" sketch:type="MSLayerGroup" transform="translate(0.000000, -40.000000)" fill="#0065BD">
            <path d="M226.929848,440.392137 L227.012498,293.578461 C227.012498,220.586351 300.336984,112.065884 320.007727,84.2514667 C371.181965,121.355789 401.666107,180.910715 401.666107,244.267314 C401.666107,345.640637 325.076939,429.388023 226.929848,440.392137 L226.929848,440.392137 Z M8.33389329,244.267314 C8.33389329,180.92454 38.8318102,121.369614 89.9647225,84.2514667 C109.649241,112.05206 182.959952,220.489581 182.959952,293.495516 L183.015052,440.364489 C84.8955114,429.360375 8.33389329,345.612988 8.33389329,244.267314 L8.33389329,244.267314 Z M322.335708,75.5698294 L319.842427,73.7864994 C315.778793,79.2056106 220.74486,207.605368 220.74486,293.578461 L220.689759,440.958932 C216.5297,441.27689 212.355866,441.484254 208.126932,441.567199 L208.126932,40 L201.873068,40 L201.873068,441.567199 C197.644134,441.484254 193.428975,441.27689 189.268915,440.958932 L189.20004,293.495516 C189.20004,207.508598 94.1798817,79.2194349 90.1300228,73.8003237 L87.5954173,75.6113022 C32.7432469,114.1257 0,177.178164 0,244.267314 C0,357.709218 91.9621019,450 205,450 C318.024123,450 410,357.709218 410,244.267314 C410,177.150516 377.215428,114.084227 322.335708,75.5698294 L322.335708,75.5698294 Z" id="FAK_WZW_RGB" sketch:type="MSShapeGroup"></path>
        </g>
    </g>
</svg>