<svg xmlns="http://www.w3.org/2000/svg" xmlns:xlink="http://www.w3.org/1999/xlink" xmlns:lucid="lucid" width="1230.11" height="1263.01"><g transform="translate(-260 -261.0671423707287)" lucid:page-tab-id="0_0"><path d="M0 0h2631.92v1861.93H0z" fill="#fff"/><path d="M412.43 868.7h134.5v72.9h-134.5z" fill="none"/><use xlink:href="#a" transform="matrix(1,0,0,1,412.43451550748534,868.6886510368579) translate(45.27777777777777 41.833333333333336)"/><path d="M661.37 1067.65h134.5v72.92h-134.5z" fill="none"/><use xlink:href="#b" transform="matrix(1,0,0,1,661.3660077522682,1067.6534180223798) translate(16.53703703703703 41.833333333333336)"/><path d="M800 1262.53h291.67v72.92H800z" fill="none"/><use xlink:href="#c" transform="matrix(1,0,0,1,800,1262.5299082931874) translate(93.125 29.299999999999997)"/><use xlink:href="#d" transform="matrix(1,0,0,1,800,1262.5299082931874) translate(98.05 50.9)"/><use xlink:href="#e" transform="matrix(1,0,0,1,800,1262.5299082931874) translate(128.05 50.9)"/><path d="M506.95 784.22V822h21.34l-48.62 43.93-48.6-43.93h21.33v-37.78z" stroke="#000" stroke-opacity="0" stroke-width="2" fill="#7ab648"/><use xlink:href="#f" transform="matrix(0.9999999999786429,-0.000006535615360856552,0.000006535615360856552,0.9999999999786429,436.06854043318697,789.2228249510877) translate(28.505 39.15)"/><path d="M755.88 985.94v37.78h21.34l-48.6 43.93-48.62-43.93h21.34v-37.78z" stroke="#000" stroke-opacity="0" stroke-width="2" fill="#7ab648"/><use xlink:href="#f" transform="matrix(0.9999999999786429,-0.000006535615360856552,0.000006535615360856552,0.9999999999786429,685.0000326779698,990.9433853441958) translate(28.505 39.15)"/><path d="M980.53 1180.82v37.78h21.34l-48.6 43.93-48.62-43.93H926v-37.78z" stroke="#000" stroke-opacity="0" stroke-width="2" fill="#7ab648"/><use xlink:href="#f" transform="matrix(0.9999999999786429,-0.000006535615360856552,0.000006535615360856552,0.9999999999786429,909.6478650896327,1185.8198756150036) translate(28.505 39.15)"/><path d="M1009.88 552.3v269.9h21.34l-48.6 43.93L934 822.2h21.34V552.3z" stroke="#000" stroke-opacity="0" stroke-width="2" fill="#7ab648"/><use xlink:href="#g" transform="matrix(1,0,0,1,939,557.3000000000002) translate(28.505 156.9)"/><path d="M1203.12 1180.82v37.78h21.34l-48.6 43.93-48.62-43.93h21.34v-37.78z" stroke="#000" stroke-opacity="0" stroke-width="2" fill="#cd4e50"/><use xlink:href="#h" transform="matrix(0.9999999999786429,-0.000006535615360856552,0.000006535615360856552,0.9999999999786429,1132.23750791106,1185.8198756150034) translate(32.555 39.15)"/><path d="M1013.77 985.94v37.78h21.34l-48.6 43.93-48.6-43.93h21.33v-37.78z" stroke="#000" stroke-opacity="0" stroke-width="2" fill="#cd4e50"/><use xlink:href="#h" transform="matrix(0.9999999999786429,-0.000006535615360856552,0.000006535615360856552,0.9999999999786429,942.8901392712214,990.943385344196) translate(32.555 39.15)"/><path d="M1077.26 465.76h128.5v52.9h-128.5z" fill="none"/><use xlink:href="#i" transform="matrix(1,0,0,1,1077.2568270858148,465.7557934075866) translate(26.049999999999997 30.1)"/><path d="M1007.67 378.3v37.77H1029L980.4 460l-48.6-43.93h21.33V378.3z" stroke="#000" stroke-opacity="0" stroke-width="2" fill="#7ab648"/><use xlink:href="#g" transform="matrix(0.9999999999786429,-0.000006535615360856552,0.000006535615360856552,0.9999999999786429,936.7904816402735,383.2899673218164) translate(28.505 39.15)"/><path d="M899.6 281.07h315.66v97.22H899.6z" stroke="#000" stroke-opacity="0" stroke-width="2" fill="#999"/><use xlink:href="#j" transform="matrix(1,0,0,1,904.5909722220572,286.0671423707287) translate(30.1355324809403 37.00952986022872)"/><use xlink:href="#k" transform="matrix(1,0,0,1,904.5909722220572,286.0671423707287) translate(49.93977326874207 37.00952986022872)"/><use xlink:href="#l" transform="matrix(1,0,0,1,904.5909722220572,286.0671423707287) translate(81.20962714421857 37.00952986022872)"/><use xlink:href="#m" transform="matrix(1,0,0,1,904.5909722220572,286.0671423707287) translate(140.5702330844981 37.00952986022872)"/><use xlink:href="#n" transform="matrix(1,0,0,1,904.5909722220572,286.0671423707287) translate(207.17502183926302 37.00952986022872)"/><use xlink:href="#o" transform="matrix(1,0,0,1,904.5909722220572,286.0671423707287) translate(21.327856972681076 59.52382465057179)"/><use xlink:href="#p" transform="matrix(1,0,0,1,904.5909722220572,286.0671423707287) translate(41.079981337357054 59.52382465057179)"/><use xlink:href="#q" transform="matrix(1,0,0,1,904.5909722220572,286.0671423707287) translate(132.64853676937736 59.52382465057179)"/><use xlink:href="#r" transform="matrix(1,0,0,1,904.5909722220572,286.0671423707287) translate(171.11045703621346 59.52382465057179)"/><use xlink:href="#s" transform="matrix(1,0,0,1,904.5909722220572,286.0671423707287) translate(186.7453839739517 59.52382465057179)"/><path d="M855.26 281.07h44.33v34.97h-44.34z" fill="none"/><use xlink:href="#t" transform="matrix(1,0,0,1,855.2568270858147,281.06714237072873) translate(15.092592592592592 22.833333333333336)"/><path d="M1168.23 378.3v37.77h21.34l-48.6 43.93-48.62-43.93h21.34V378.3z" stroke="#000" stroke-opacity="0" stroke-width="2" fill="#cd4e50"/><use xlink:href="#h" transform="matrix(0.9999999999786429,-0.000006535615360856552,0.000006535615360856552,0.9999999999786429,1097.3495209900493,383.2899673218164) translate(32.555 39.15)"/><path d="M665.33 461.07h412.33v97.22H665.33z" stroke="#000" stroke-opacity="0" stroke-width="2" fill="#999"/><use xlink:href="#u" transform="matrix(1,0,0,1,670.3341451362423,466.06714237072856) translate(62.625 36.4)"/><use xlink:href="#v" transform="matrix(1,0,0,1,670.3341451362423,466.06714237072856) translate(81.625 36.4)"/><use xlink:href="#w" transform="matrix(1,0,0,1,670.3341451362423,466.06714237072856) translate(114.575 36.4)"/><use xlink:href="#x" transform="matrix(1,0,0,1,670.3341451362423,466.06714237072856) translate(168.47500000000002 36.4)"/><use xlink:href="#y" transform="matrix(1,0,0,1,670.3341451362423,466.06714237072856) translate(206.425 36.4)"/><use xlink:href="#z" transform="matrix(1,0,0,1,670.3341451362423,466.06714237072856) translate(257.425 36.4)"/><use xlink:href="#A" transform="matrix(1,0,0,1,670.3341451362423,466.06714237072856) translate(152.55 58)"/><use xlink:href="#B" transform="matrix(1,0,0,1,670.3341451362423,466.06714237072856) translate(171.5 58)"/><use xlink:href="#C" transform="matrix(1,0,0,1,670.3341451362423,466.06714237072856) translate(201.5 58)"/><path d="M621 461.07h44.33v34.97H621z" fill="none"/><use xlink:href="#D" transform="matrix(1,0,0,1,621,461.0671423707286) translate(15.092592592592592 22.833333333333336)"/><path d="M328.28 640h546.07v143.92H328.28z" stroke="#000" stroke-opacity="0" stroke-width="2" fill="#999"/><use xlink:href="#u" transform="matrix(1,0,0,1,333.2764604441118,645) translate(45.17499999999998 39.525)"/><use xlink:href="#B" transform="matrix(1,0,0,1,333.2764604441118,645) translate(64.17499999999998 39.525)"/><use xlink:href="#E" transform="matrix(1,0,0,1,333.2764604441118,645) translate(94.17499999999998 39.525)"/><use xlink:href="#F" transform="matrix(1,0,0,1,333.2764604441118,645) translate(158.075 39.525)"/><use xlink:href="#G" transform="matrix(1,0,0,1,333.2764604441118,645) translate(293.925 39.525)"/><use xlink:href="#B" transform="matrix(1,0,0,1,333.2764604441118,645) translate(312.875 39.525)"/><use xlink:href="#H" transform="matrix(1,0,0,1,333.2764604441118,645) translate(342.875 39.525)"/><use xlink:href="#I" transform="matrix(1,0,0,1,333.2764604441118,645) translate(393.82500000000005 39.525)"/><use xlink:href="#J" transform="matrix(1,0,0,1,333.2764604441118,645) translate(446.82500000000005 39.525)"/><use xlink:href="#K" transform="matrix(1,0,0,1,333.2764604441118,645) translate(466.82500000000005 39.525)"/><use xlink:href="#L" transform="matrix(1,0,0,1,333.2764604441118,645) translate(47.900000000000006 61.125)"/><use xlink:href="#M" transform="matrix(1,0,0,1,333.2764604441118,645) translate(136.85000000000002 61.125)"/><use xlink:href="#N" transform="matrix(1,0,0,1,333.2764604441118,645) translate(221.75000000000003 61.125)"/><use xlink:href="#B" transform="matrix(1,0,0,1,333.2764604441118,645) translate(241.75000000000003 61.125)"/><use xlink:href="#O" transform="matrix(1,0,0,1,333.2764604441118,645) translate(271.75 61.125)"/><use xlink:href="#P" transform="matrix(1,0,0,1,333.2764604441118,645) translate(334.65 61.125)"/><use xlink:href="#Q" transform="matrix(1,0,0,1,333.2764604441118,645) translate(358.65 61.125)"/><use xlink:href="#R" transform="matrix(1,0,0,1,333.2764604441118,645) translate(373.65 61.125)"/><use xlink:href="#J" transform="matrix(1,0,0,1,333.2764604441118,645) translate(423.6 61.125)"/><use xlink:href="#S" transform="matrix(1,0,0,1,333.2764604441118,645) translate(443.6 61.125)"/><use xlink:href="#T" transform="matrix(1,0,0,1,333.2764604441118,645) translate(249.55 82.72500000000001)"/><use xlink:href="#U" transform="matrix(1,0,0,1,333.2764604441118,645) translate(34.25481481481481 104.32500000000002)"/><use xlink:href="#B" transform="matrix(1,0,0,1,333.2764604441118,645) translate(81.20481481481481 104.32500000000002)"/><use xlink:href="#E" transform="matrix(1,0,0,1,333.2764604441118,645) translate(111.20481481481481 104.32500000000002)"/><use xlink:href="#V" transform="matrix(1,0,0,1,333.2764604441118,645) translate(175.1048148148148 104.32500000000002)"/><use xlink:href="#W" transform="matrix(1,0,0,1,333.2764604441118,645) translate(237.1048148148148 104.32500000000002)"/><use xlink:href="#X" transform="matrix(1,0,0,1,333.2764604441118,645) translate(320.00481481481484 104.32500000000002)"/><use xlink:href="#Y" transform="matrix(1,0,0,1,333.2764604441118,645) translate(376.5548148148148 104.32500000000002)"/><use xlink:href="#Z" transform="matrix(1,0,0,1,333.2764604441118,645) translate(449.0118518518518 104.32500000000002)"/><use xlink:href="#aa" transform="matrix(1,0,0,1,333.2764604441118,645) translate(463.3118518518519 104.32500000000002)"/><path d="M280 652.67h48.28v42.65H280z" fill="none"/><g><use xlink:href="#ab" transform="matrix(1,0,0,1,280,652.6708917269061) translate(17.09259259259259 26.833333333333336)"/></g><path d="M644.33 865.63h425.35v120.3H644.33z" stroke="#000" stroke-opacity="0" stroke-width="2" fill="#999"/><g><use xlink:href="#u" transform="matrix(1,0,0,1,649.3341451362426,870.6302826153305) translate(46.05000000000001 38.68125)"/><use xlink:href="#B" transform="matrix(1,0,0,1,649.3341451362426,870.6302826153305) translate(65.05000000000001 38.68125)"/><use xlink:href="#ac" transform="matrix(1,0,0,1,649.3341451362426,870.6302826153305) translate(95.05000000000001 38.68125)"/><use xlink:href="#J" transform="matrix(1,0,0,1,649.3341451362426,870.6302826153305) translate(178.05 38.68125)"/><use xlink:href="#B" transform="matrix(1,0,0,1,649.3341451362426,870.6302826153305) translate(198.05 38.68125)"/><use xlink:href="#E" transform="matrix(1,0,0,1,649.3341451362426,870.6302826153305) translate(228.05 38.68125)"/><use xlink:href="#ad" transform="matrix(1,0,0,1,649.3341451362426,870.6302826153305) translate(291.95000000000005 38.68125)"/><use xlink:href="#ae" transform="matrix(1,0,0,1,649.3341451362426,870.6302826153305) translate(194.525 60.28125)"/><use xlink:href="#af" transform="matrix(1,0,0,1,649.3341451362426,870.6302826153305) translate(45.69999999999999 81.88125000000001)"/><use xlink:href="#B" transform="matrix(1,0,0,1,649.3341451362426,870.6302826153305) translate(64.69999999999999 81.88125000000001)"/><use xlink:href="#ag" transform="matrix(1,0,0,1,649.3341451362426,870.6302826153305) translate(94.69999999999999 81.88125000000001)"/><use xlink:href="#ah" transform="matrix(1,0,0,1,649.3341451362426,870.6302826153305) translate(161.6 81.88125000000001)"/><use xlink:href="#ai" transform="matrix(1,0,0,1,649.3341451362426,870.6302826153305) translate(250.4 81.88125000000001)"/><use xlink:href="#aj" transform="matrix(1,0,0,1,649.3341451362426,870.6302826153305) translate(280.4 81.88125000000001)"/></g><path d="M600 865.63h44.33v34.97H600z" fill="none"/><g><use xlink:href="#ak" transform="matrix(1,0,0,1,600,865.6302826153318) translate(15.092592592592592 22.833333333333336)"/></g><path d="M874.35 1067.65h385.04v113.17H874.34z" stroke="#000" stroke-opacity="0" stroke-width="2" fill="#999"/><g><use xlink:href="#u" transform="matrix(1,0,0,1,879.3493981471092,1072.6534180223798) translate(41.55000000000001 33.9)"/><use xlink:href="#B" transform="matrix(1,0,0,1,879.3493981471092,1072.6534180223798) translate(60.55000000000001 33.9)"/><use xlink:href="#ac" transform="matrix(1,0,0,1,879.3493981471092,1072.6534180223798) translate(90.55000000000001 33.9)"/><use xlink:href="#al" transform="matrix(1,0,0,1,879.3493981471092,1072.6534180223798) translate(173.55 33.9)"/><use xlink:href="#am" transform="matrix(1,0,0,1,879.3493981471092,1072.6534180223798) translate(252.5 33.9)"/><use xlink:href="#ae" transform="matrix(1,0,0,1,879.3493981471092,1072.6534180223798) translate(174.525 55.5)"/><use xlink:href="#af" transform="matrix(1,0,0,1,879.3493981471092,1072.6534180223798) translate(36.19999999999999 77.10000000000001)"/><use xlink:href="#B" transform="matrix(1,0,0,1,879.3493981471092,1072.6534180223798) translate(55.19999999999999 77.10000000000001)"/><use xlink:href="#an" transform="matrix(1,0,0,1,879.3493981471092,1072.6534180223798) translate(85.19999999999999 77.10000000000001)"/><use xlink:href="#ao" transform="matrix(1,0,0,1,879.3493981471092,1072.6534180223798) translate(161.05 77.10000000000001)"/><use xlink:href="#ap" transform="matrix(1,0,0,1,879.3493981471092,1072.6534180223798) translate(257.85 77.10000000000001)"/></g><path d="M817.86 1067.65h44.34v34.97h-44.34z" fill="none"/><g><use xlink:href="#aq" transform="matrix(1,0,0,1,817.8624752330895,1067.6534180223798) translate(15.092592592592592 22.833333333333336)"/></g><path d="M1109.2 1431.16h134.5v72.92h-134.5z" fill="none"/><g><use xlink:href="#ar" transform="matrix(1,0,0,1,1109.2008061408767,1431.164288146359) translate(16.537037037037038 41.833333333333336)"/></g><path d="M1321.2 1431.16h134.5v72.92h-134.5z" fill="none"/><g><use xlink:href="#as" transform="matrix(1,0,0,1,1321.195364708339,1431.164288146359) translate(3.129629629629619 41.833333333333336)"/></g><path d="M1091.67 1262.53h378.44v93.55h-378.43z" stroke="#000" stroke-opacity="0" stroke-width="2" fill="#999"/><g><use xlink:href="#u" transform="matrix(1,0,0,1,1096.6666666666665,1267.5299082931874) translate(26.599074074074082 45.9)"/><use xlink:href="#B" transform="matrix(1,0,0,1,1096.6666666666665,1267.5299082931874) translate(45.59907407407408 45.9)"/><use xlink:href="#at" transform="matrix(1,0,0,1,1096.6666666666665,1267.5299082931874) translate(75.59907407407408 45.9)"/><use xlink:href="#au" transform="matrix(1,0,0,1,1096.6666666666665,1267.5299082931874) translate(181.34907407407408 45.9)"/><use xlink:href="#av" transform="matrix(1,0,0,1,1096.6666666666665,1267.5299082931874) translate(288.2490740740741 45.9)"/></g><path d="M1047.33 1262.53h44.34v34.97h-44.34z" fill="none"/><g><use xlink:href="#aw" transform="matrix(1,0,0,1,1047.332521530424,1262.5299082931874) translate(15.092592592592592 22.833333333333336)"/></g><g><path d="M1201.67 1356.08v37.78H1223l-48.6 43.93-48.6-43.94h21.33v-37.78z" stroke="#000" stroke-opacity="0" stroke-width="2" fill="#7ab648"/></g><g><use xlink:href="#g" transform="matrix(0.9999999999786429,-0.000006535615360856552,0.000006535615360856552,0.9999999999786429,1130.7904816402736,1361.0783103302556) translate(28.505 39.15)"/></g><g><path d="M1409.08 1356.08v37.78h21.34l-48.6 43.93-48.62-43.94h21.34v-37.78z" stroke="#000" stroke-opacity="0" stroke-width="2" fill="#cd4e50"/></g><g><use xlink:href="#h" transform="matrix(0.9999999999786429,-0.000006535615360856552,0.000006535615360856552,0.9999999999786429,1338.2008388188467,1361.0783103302556) translate(32.555 39.15)"/></g><g><path d="M755.88 783.92v37.78h21.34l-48.6 43.93L680 821.7h21.34v-37.78z" stroke="#000" stroke-opacity="0" stroke-width="2" fill="#cd4e50"/></g><g><use xlink:href="#h" transform="matrix(0.9999999999786429,-0.000006535615360856552,0.000006535615360856552,0.9999999999786429,685.0000326779697,788.9202499371465) translate(32.555 39.15)"/></g><g><path d="M750.75 558.3v37.77h21.34L723.47 640l-48.6-43.93h21.33V558.3z" stroke="#000" stroke-opacity="0" stroke-width="2" fill="#cd4e50"/></g><g><use xlink:href="#h" transform="matrix(0.9999999999786429,-0.000006535615360856552,0.000006535615360856552,0.9999999999786429,679.8655914661891,563.2899673218162) translate(32.555 39.15)"/></g><defs><path fill="#7ab648" d="M147 0L96-86 75-71V0H25v-261h50v150l67-79h53l-66 74L201 0h-54" id="ax"/><path fill="#7ab648" d="M185-48c-13 30-37 53-82 52C43 2 14-33 14-96s30-98 90-98c62 0 83 45 84 108H66c0 31 8 55 39 56 18 0 30-7 34-22zm-45-69c5-46-57-63-70-21-2 6-4 13-4 21h74" id="ay"/><path fill="#7ab648" d="M123 10C108 53 80 86 19 72V37c35 8 53-11 59-39L3-190h52l48 148c12-52 28-100 44-148h51" id="az"/><g id="a"><use transform="matrix(0.07407407407407408,0,0,0.07407407407407408,0,0)" xlink:href="#ax"/><use transform="matrix(0.07407407407407408,0,0,0.07407407407407408,14.814814814814817,0)" xlink:href="#ay"/><use transform="matrix(0.07407407407407408,0,0,0.07407407407407408,29.629629629629633,0)" xlink:href="#az"/></g><path fill="#999" d="M137-138c1-29-70-34-71-4 15 46 118 7 119 86 1 83-164 76-172 9l43-7c4 19 20 25 44 25 33 8 57-30 24-41C81-84 22-81 20-136c-2-80 154-74 161-7" id="aA"/><path fill="#999" d="M190-63c-7 42-38 67-86 67-59 0-84-38-90-98-12-110 154-137 174-36l-49 2c-2-19-15-32-35-32-30 0-35 28-38 64-6 74 65 87 74 30" id="aB"/><path fill="#999" d="M133-34C117-15 103 5 69 4 32 3 11-16 11-54c-1-60 55-63 116-61 1-26-3-47-28-47-18 1-26 9-28 27l-52-2c7-38 36-58 82-57s74 22 75 68l1 82c-1 14 12 18 25 15v27c-30 8-71 5-69-32zm-48 3c29 0 43-24 42-57-32 0-66-3-65 30 0 17 8 27 23 27" id="aC"/><path fill="#999" d="M121-226c-27-7-43 5-38 36h38v33H83V0H34v-157H6v-33h28c-9-59 32-81 87-68v32" id="aD"/><path fill="#999" d="M110-194c64 0 96 36 96 99 0 64-35 99-97 99-61 0-95-36-95-99 0-62 34-99 96-99zm-1 164c35 0 45-28 45-65 0-40-10-65-43-65-34 0-45 26-45 65 0 36 10 65 43 65" id="aE"/><path fill="#999" d="M25 0v-261h50V0H25" id="aF"/><path fill="#999" d="M88-194c31-1 46 15 58 34l-1-101h50l1 261h-48c-2-10 0-23-3-31C134-8 116 4 84 4 32 4 16-41 15-95c0-56 19-97 73-99zm17 164c33 0 40-30 41-66 1-37-9-64-41-64s-38 30-39 65c0 43 13 65 39 65" id="aG"/><g id="b"><use transform="matrix(0.07407407407407408,0,0,0.07407407407407408,0,0)" xlink:href="#aA"/><use transform="matrix(0.07407407407407408,0,0,0.07407407407407408,14.814814814814817,0)" xlink:href="#aB"/><use transform="matrix(0.07407407407407408,0,0,0.07407407407407408,29.629629629629633,0)" xlink:href="#aC"/><use transform="matrix(0.07407407407407408,0,0,0.07407407407407408,44.44444444444445,0)" xlink:href="#aD"/><use transform="matrix(0.07407407407407408,0,0,0.07407407407407408,53.25925925925927,0)" xlink:href="#aD"/><use transform="matrix(0.07407407407407408,0,0,0.07407407407407408,62.07407407407408,0)" xlink:href="#aE"/><use transform="matrix(0.07407407407407408,0,0,0.07407407407407408,78.2962962962963,0)" xlink:href="#aF"/><use transform="matrix(0.07407407407407408,0,0,0.07407407407407408,85.70370370370371,0)" xlink:href="#aG"/></g><path d="M212-179c-10-28-35-45-73-45-59 0-87 40-87 99 0 60 29 101 89 101 43 0 62-24 78-52l27 14C228-24 195 4 139 4 59 4 22-46 18-125c-6-104 99-153 187-111 19 9 31 26 39 46" id="aH"/><path d="M24 0v-261h32V0H24" id="aI"/><path d="M141-36C126-15 110 5 73 4 37 3 15-17 15-53c-1-64 63-63 125-63 3-35-9-54-41-54-24 1-41 7-42 31l-33-3c5-37 33-52 76-52 45 0 72 20 72 64v82c-1 20 7 32 28 27v20c-31 9-61-2-59-35zM48-53c0 20 12 33 32 33 41-3 63-29 60-74-43 2-92-5-92 41" id="aJ"/><path d="M135-143c-3-34-86-38-87 0 15 53 115 12 119 90S17 21 10-45l28-5c4 36 97 45 98 0-10-56-113-15-118-90-4-57 82-63 122-42 12 7 21 19 24 35" id="aK"/><path d="M24-231v-30h32v30H24zM24 0v-190h32V0H24" id="aL"/><path d="M101-234c-31-9-42 10-38 44h38v23H63V0H32v-167H5v-23h27c-7-52 17-82 69-68v24" id="aM"/><path d="M96-169c-40 0-48 33-48 73s9 75 48 75c24 0 41-14 43-38l32 2c-6 37-31 61-74 61-59 0-76-41-82-99-10-93 101-131 147-64 4 7 5 14 7 22l-32 3c-4-21-16-35-41-35" id="aN"/><path d="M59-47c-2 24 18 29 38 22v24C64 9 27 4 27-40v-127H5v-23h24l9-43h21v43h35v23H59v120" id="aO"/><path d="M100-194c62-1 85 37 85 99 1 63-27 99-86 99S16-35 15-95c0-66 28-99 85-99zM99-20c44 1 53-31 53-75 0-43-8-75-51-75s-53 32-53 75 10 74 51 75" id="aP"/><path d="M117-194c89-4 53 116 60 194h-32v-121c0-31-8-49-39-48C34-167 62-67 57 0H25l-1-190h30c1 10-1 24 2 32 11-22 29-35 61-36" id="aQ"/><g id="c"><use transform="matrix(0.05,0,0,0.05,0,0)" xlink:href="#aH"/><use transform="matrix(0.05,0,0,0.05,12.950000000000001,0)" xlink:href="#aI"/><use transform="matrix(0.05,0,0,0.05,16.900000000000002,0)" xlink:href="#aJ"/><use transform="matrix(0.05,0,0,0.05,26.900000000000002,0)" xlink:href="#aK"/><use transform="matrix(0.05,0,0,0.05,35.900000000000006,0)" xlink:href="#aK"/><use transform="matrix(0.05,0,0,0.05,44.900000000000006,0)" xlink:href="#aL"/><use transform="matrix(0.05,0,0,0.05,48.85000000000001,0)" xlink:href="#aM"/><use transform="matrix(0.05,0,0,0.05,53.85,0)" xlink:href="#aL"/><use transform="matrix(0.05,0,0,0.05,57.80000000000001,0)" xlink:href="#aN"/><use transform="matrix(0.05,0,0,0.05,66.80000000000001,0)" xlink:href="#aJ"/><use transform="matrix(0.05,0,0,0.05,76.80000000000001,0)" xlink:href="#aO"/><use transform="matrix(0.05,0,0,0.05,81.80000000000001,0)" xlink:href="#aL"/><use transform="matrix(0.05,0,0,0.05,85.75000000000001,0)" xlink:href="#aP"/><use transform="matrix(0.05,0,0,0.05,95.75000000000001,0)" xlink:href="#aQ"/></g><g id="d"><use transform="matrix(0.05,0,0,0.05,0,0)" xlink:href="#aQ"/><use transform="matrix(0.05,0,0,0.05,10,0)" xlink:href="#aP"/><use transform="matrix(0.05,0,0,0.05,20,0)" xlink:href="#aO"/></g><path d="M115-194c55 1 70 41 70 98S169 2 115 4C84 4 66-9 55-30l1 105H24l-1-265h31l2 30c10-21 28-34 59-34zm-8 174c40 0 45-34 45-75s-6-73-45-74c-42 0-51 32-51 76 0 43 10 73 51 73" id="aR"/><path d="M115-194c53 0 69 39 70 98 0 66-23 100-70 100C84 3 66-7 56-30L54 0H23l1-261h32v101c10-23 28-34 59-34zm-8 174c40 0 45-34 45-75 0-40-5-75-45-74-42 0-51 32-51 76 0 43 10 73 51 73" id="aS"/><path d="M100-194c63 0 86 42 84 106H49c0 40 14 67 53 68 26 1 43-12 49-29l28 8c-11 28-37 45-77 45C44 4 14-33 15-96c1-61 26-98 85-98zm52 81c6-60-76-77-97-28-3 7-6 17-6 28h103" id="aT"/><g id="e"><use transform="matrix(0.05,0,0,0.05,0,0)" xlink:href="#aR"/><use transform="matrix(0.05,0,0,0.05,10,0)" xlink:href="#aP"/><use transform="matrix(0.05,0,0,0.05,20,0)" xlink:href="#aK"/><use transform="matrix(0.05,0,0,0.05,29,0)" xlink:href="#aK"/><use transform="matrix(0.05,0,0,0.05,38,0)" xlink:href="#aL"/><use transform="matrix(0.05,0,0,0.05,41.95,0)" xlink:href="#aS"/><use transform="matrix(0.05,0,0,0.05,51.95,0)" xlink:href="#aI"/><use transform="matrix(0.05,0,0,0.05,55.900000000000006,0)" xlink:href="#aT"/></g><path fill="#fff" d="M123 10C108 53 80 86 19 72V37c35 8 53-11 59-39L3-190h52l48 148c12-52 28-100 44-148h51" id="aU"/><path fill="#fff" d="M185-48c-13 30-37 53-82 52C43 2 14-33 14-96s30-98 90-98c62 0 83 45 84 108H66c0 31 8 55 39 56 18 0 30-7 34-22zm-45-69c5-46-57-63-70-21-2 6-4 13-4 21h74" id="aV"/><path fill="#fff" d="M137-138c1-29-70-34-71-4 15 46 118 7 119 86 1 83-164 76-172 9l43-7c4 19 20 25 44 25 33 8 57-30 24-41C81-84 22-81 20-136c-2-80 154-74 161-7" id="aW"/><g id="f"><use transform="matrix(0.05,0,0,0.05,0,0)" xlink:href="#aU"/><use transform="matrix(0.05,0,0,0.05,10,0)" xlink:href="#aV"/><use transform="matrix(0.05,0,0,0.05,20,0)" xlink:href="#aW"/></g><g id="g"><use transform="matrix(0.05,0,0,0.05,0,0)" xlink:href="#aU"/><use transform="matrix(0.05,0,0,0.05,10,0)" xlink:href="#aV"/><use transform="matrix(0.05,0,0,0.05,20,0)" xlink:href="#aW"/></g><path fill="#fff" d="M135-194c87-1 58 113 63 194h-50c-7-57 23-157-34-157-59 0-34 97-39 157H25l-1-190h47c2 12-1 28 3 38 12-26 28-41 61-42" id="aX"/><path fill="#fff" d="M110-194c64 0 96 36 96 99 0 64-35 99-97 99-61 0-95-36-95-99 0-62 34-99 96-99zm-1 164c35 0 45-28 45-65 0-40-10-65-43-65-34 0-45 26-45 65 0 36 10 65 43 65" id="aY"/><g id="h"><use transform="matrix(0.05,0,0,0.05,0,0)" xlink:href="#aX"/><use transform="matrix(0.05,0,0,0.05,10.950000000000001,0)" xlink:href="#aY"/></g><path d="M30 0v-248h187v28H63v79h144v27H63v87h162V0H30" id="aZ"/><path d="M141 0L90-78 38 0H4l68-98-65-92h35l48 74 47-74h35l-64 92 68 98h-35" id="ba"/><path d="M84 4C-5 8 30-112 23-190h32v120c0 31 7 50 39 49 72-2 45-101 50-169h31l1 190h-30c-1-10 1-25-2-33-11 22-28 36-60 37" id="bb"/><g id="i"><use transform="matrix(0.05,0,0,0.05,0,0)" xlink:href="#aZ"/><use transform="matrix(0.05,0,0,0.05,12,0)" xlink:href="#ba"/><use transform="matrix(0.05,0,0,0.05,21,0)" xlink:href="#aN"/><use transform="matrix(0.05,0,0,0.05,30,0)" xlink:href="#aI"/><use transform="matrix(0.05,0,0,0.05,33.95,0)" xlink:href="#bb"/><use transform="matrix(0.05,0,0,0.05,43.95,0)" xlink:href="#aK"/><use transform="matrix(0.05,0,0,0.05,52.95,0)" xlink:href="#aL"/><use transform="matrix(0.05,0,0,0.05,56.900000000000006,0)" xlink:href="#aP"/><use transform="matrix(0.05,0,0,0.05,66.9,0)" xlink:href="#aQ"/></g><path fill="#fff" d="M33 0v-248h34V0H33" id="bc"/><path fill="#fff" d="M135-143c-3-34-86-38-87 0 15 53 115 12 119 90S17 21 10-45l28-5c4 36 97 45 98 0-10-56-113-15-118-90-4-57 82-63 122-42 12 7 21 19 24 35" id="bd"/><g id="j"><use transform="matrix(0.052116423125794155,0,0,0.052116423125794155,0,0)" xlink:href="#bc"/><use transform="matrix(0.052116423125794155,0,0,0.052116423125794155,5.211642312579415,0)" xlink:href="#bd"/></g><path fill="#fff" d="M59-47c-2 24 18 29 38 22v24C64 9 27 4 27-40v-127H5v-23h24l9-43h21v43h35v23H59v120" id="be"/><path fill="#fff" d="M106-169C34-169 62-67 57 0H25v-261h32l-1 103c12-21 28-36 61-36 89 0 53 116 60 194h-32v-121c2-32-8-49-39-48" id="bf"/><path fill="#fff" d="M100-194c63 0 86 42 84 106H49c0 40 14 67 53 68 26 1 43-12 49-29l28 8c-11 28-37 45-77 45C44 4 14-33 15-96c1-61 26-98 85-98zm52 81c6-60-76-77-97-28-3 7-6 17-6 28h103" id="bg"/><g id="k"><use transform="matrix(0.052116423125794155,0,0,0.052116423125794155,0,0)" xlink:href="#be"/><use transform="matrix(0.052116423125794155,0,0,0.052116423125794155,5.211642312579415,0)" xlink:href="#bf"/><use transform="matrix(0.052116423125794155,0,0,0.052116423125794155,15.634926937738246,0)" xlink:href="#bg"/></g><path fill="#fff" d="M143 0L79-87 56-68V0H24v-261h32v163l83-92h37l-77 82L181 0h-38" id="bh"/><path fill="#fff" d="M24-231v-30h32v30H24zM24 0v-190h32V0H24" id="bi"/><path fill="#fff" d="M117-194c89-4 53 116 60 194h-32v-121c0-31-8-49-39-48C34-167 62-67 57 0H25l-1-190h30c1 10-1 24 2 32 11-22 29-35 61-36" id="bj"/><path fill="#fff" d="M141-36C126-15 110 5 73 4 37 3 15-17 15-53c-1-64 63-63 125-63 3-35-9-54-41-54-24 1-41 7-42 31l-33-3c5-37 33-52 76-52 45 0 72 20 72 64v82c-1 20 7 32 28 27v20c-31 9-61-2-59-35zM48-53c0 20 12 33 32 33 41-3 63-29 60-74-43 2-92-5-92 41" id="bk"/><g id="l"><use transform="matrix(0.052116423125794155,0,0,0.052116423125794155,0,0)" xlink:href="#bh"/><use transform="matrix(0.052116423125794155,0,0,0.052116423125794155,9.380956162642947,0)" xlink:href="#bi"/><use transform="matrix(0.052116423125794155,0,0,0.052116423125794155,13.498153589580687,0)" xlink:href="#bj"/><use transform="matrix(0.052116423125794155,0,0,0.052116423125794155,23.921438214739517,0)" xlink:href="#bk"/><use transform="matrix(0.052116423125794155,0,0,0.052116423125794155,34.344722839898346,0)" xlink:href="#bd"/><use transform="matrix(0.052116423125794155,0,0,0.052116423125794155,43.72567900254129,0)" xlink:href="#bg"/></g><path fill="#fff" d="M114-163C36-179 61-72 57 0H25l-1-190h30c1 12-1 29 2 39 6-27 23-49 58-41v29" id="bl"/><path fill="#fff" d="M85-194c31 0 48 13 60 33l-1-100h32l1 261h-30c-2-10 0-23-3-31C134-8 116 4 85 4 32 4 16-35 15-94c0-66 23-100 70-100zm9 24c-40 0-46 34-46 75 0 40 6 74 45 74 42 0 51-32 51-76 0-42-9-74-50-73" id="bm"/><path fill="#fff" d="M84 4C-5 8 30-112 23-190h32v120c0 31 7 50 39 49 72-2 45-101 50-169h31l1 190h-30c-1-10 1-25-2-33-11 22-28 36-60 37" id="bn"/><g id="m"><use transform="matrix(0.052116423125794155,0,0,0.052116423125794155,0,0)" xlink:href="#bl"/><use transform="matrix(0.052116423125794155,0,0,0.052116423125794155,6.201854351969504,0)" xlink:href="#bg"/><use transform="matrix(0.052116423125794155,0,0,0.052116423125794155,16.625138977128334,0)" xlink:href="#bd"/><use transform="matrix(0.052116423125794155,0,0,0.052116423125794155,26.006095139771283,0)" xlink:href="#bi"/><use transform="matrix(0.052116423125794155,0,0,0.052116423125794155,30.123292566709022,0)" xlink:href="#bm"/><use transform="matrix(0.052116423125794155,0,0,0.052116423125794155,40.546577191867854,0)" xlink:href="#bn"/><use transform="matrix(0.052116423125794155,0,0,0.052116423125794155,50.96986181702668,0)" xlink:href="#bg"/></g><path fill="#fff" d="M108 0H70L1-190h34L89-25l56-165h34" id="bo"/><path fill="#fff" d="M100-194c62-1 85 37 85 99 1 63-27 99-86 99S16-35 15-95c0-66 28-99 85-99zM99-20c44 1 53-31 53-75 0-43-8-75-51-75s-53 32-53 75 10 74 51 75" id="bp"/><path fill="#fff" d="M24 0v-261h32V0H24" id="bq"/><g id="n"><use transform="matrix(0.052116423125794155,0,0,0.052116423125794155,0,0)" xlink:href="#bi"/><use transform="matrix(0.052116423125794155,0,0,0.052116423125794155,4.1171974269377385,0)" xlink:href="#bj"/><use transform="matrix(0.052116423125794155,0,0,0.052116423125794155,14.54048205209657,0)" xlink:href="#bo"/><use transform="matrix(0.052116423125794155,0,0,0.052116423125794155,23.921438214739517,0)" xlink:href="#bp"/><use transform="matrix(0.052116423125794155,0,0,0.052116423125794155,34.344722839898346,0)" xlink:href="#bq"/><use transform="matrix(0.052116423125794155,0,0,0.052116423125794155,38.46192026683608,0)" xlink:href="#bo"/><use transform="matrix(0.052116423125794155,0,0,0.052116423125794155,47.84287642947903,0)" xlink:href="#bg"/><use transform="matrix(0.052116423125794155,0,0,0.052116423125794155,58.266161054637855,0)" xlink:href="#bm"/></g><g id="o"><use transform="matrix(0.052116423125794155,0,0,0.052116423125794155,0,0)" xlink:href="#bi"/><use transform="matrix(0.052116423125794155,0,0,0.052116423125794155,4.1171974269377385,0)" xlink:href="#bj"/></g><path fill="#fff" d="M96-169c-40 0-48 33-48 73s9 75 48 75c24 0 41-14 43-38l32 2c-6 37-31 61-74 61-59 0-76-41-82-99-10-93 101-131 147-64 4 7 5 14 7 22l-32 3c-4-21-16-35-41-35" id="br"/><g id="p"><use transform="matrix(0.052116423125794155,0,0,0.052116423125794155,0,0)" xlink:href="#bi"/><use transform="matrix(0.052116423125794155,0,0,0.052116423125794155,4.1171974269377385,0)" xlink:href="#bj"/><use transform="matrix(0.052116423125794155,0,0,0.052116423125794155,14.54048205209657,0)" xlink:href="#be"/><use transform="matrix(0.052116423125794155,0,0,0.052116423125794155,19.752124364675982,0)" xlink:href="#bg"/><use transform="matrix(0.052116423125794155,0,0,0.052116423125794155,30.175408989834814,0)" xlink:href="#bl"/><use transform="matrix(0.052116423125794155,0,0,0.052116423125794155,36.377263341804316,0)" xlink:href="#bk"/><use transform="matrix(0.052116423125794155,0,0,0.052116423125794155,46.800547966963144,0)" xlink:href="#br"/><use transform="matrix(0.052116423125794155,0,0,0.052116423125794155,56.18150412960609,0)" xlink:href="#be"/><use transform="matrix(0.052116423125794155,0,0,0.052116423125794155,61.393146442185504,0)" xlink:href="#bi"/><use transform="matrix(0.052116423125794155,0,0,0.052116423125794155,65.51034386912325,0)" xlink:href="#bp"/><use transform="matrix(0.052116423125794155,0,0,0.052116423125794155,75.93362849428208,0)" xlink:href="#bj"/></g><path fill="#fff" d="M206 0h-36l-40-164L89 0H53L-1-190h32L70-26l43-164h34l41 164 42-164h31" id="bs"/><g id="q"><use transform="matrix(0.052116423125794155,0,0,0.052116423125794155,0,0)" xlink:href="#bs"/><use transform="matrix(0.052116423125794155,0,0,0.052116423125794155,13.498153589580687,0)" xlink:href="#bi"/><use transform="matrix(0.052116423125794155,0,0,0.052116423125794155,17.615351016518424,0)" xlink:href="#be"/><use transform="matrix(0.052116423125794155,0,0,0.052116423125794155,22.82699332909784,0)" xlink:href="#bf"/></g><use transform="matrix(0.052116423125794155,0,0,0.052116423125794155,0,0)" xlink:href="#bk" id="r"/><path fill="#fff" d="M210-169c-67 3-38 105-44 169h-31v-121c0-29-5-50-35-48C34-165 62-65 56 0H25l-1-190h30c1 10-1 24 2 32 10-44 99-50 107 0 11-21 27-35 58-36 85-2 47 119 55 194h-31v-121c0-29-5-49-35-48" id="bt"/><path fill="#fff" d="M115-194c55 1 70 41 70 98S169 2 115 4C84 4 66-9 55-30l1 105H24l-1-265h31l2 30c10-21 28-34 59-34zm-8 174c40 0 45-34 45-75s-6-73-45-74c-42 0-51 32-51 76 0 43 10 73 51 73" id="bu"/><path fill="#fff" d="M103-251c84 0 111 97 45 133-19 10-37 24-39 52H78c0-63 77-55 77-114 0-30-21-42-52-43-32 0-53 17-56 46l-32-2c7-45 34-72 88-72zM77 0v-35h34V0H77" id="bv"/><g id="s"><use transform="matrix(0.052116423125794155,0,0,0.052116423125794155,0,0)" xlink:href="#br"/><use transform="matrix(0.052116423125794155,0,0,0.052116423125794155,9.380956162642947,0)" xlink:href="#bp"/><use transform="matrix(0.052116423125794155,0,0,0.052116423125794155,19.804240787801778,0)" xlink:href="#bt"/><use transform="matrix(0.052116423125794155,0,0,0.052116423125794155,35.38705130241423,0)" xlink:href="#bu"/><use transform="matrix(0.052116423125794155,0,0,0.052116423125794155,45.81033592757306,0)" xlink:href="#bp"/><use transform="matrix(0.052116423125794155,0,0,0.052116423125794155,56.23362055273188,0)" xlink:href="#bn"/><use transform="matrix(0.052116423125794155,0,0,0.052116423125794155,66.65690517789072,0)" xlink:href="#bj"/><use transform="matrix(0.052116423125794155,0,0,0.052116423125794155,77.08018980304955,0)" xlink:href="#bm"/><use transform="matrix(0.052116423125794155,0,0,0.052116423125794155,87.50347442820838,0)" xlink:href="#bv"/></g><path fill="#999" d="M23 0v-37h61v-169l-59 37v-38l62-41h46v211h57V0H23" id="bw"/><use transform="matrix(0.07407407407407408,0,0,0.07407407407407408,0,0)" xlink:href="#bw" id="t"/><g id="u"><use transform="matrix(0.05,0,0,0.05,0,0)" xlink:href="#bc"/><use transform="matrix(0.05,0,0,0.05,5,0)" xlink:href="#bd"/></g><g id="v"><use transform="matrix(0.05,0,0,0.05,0,0)" xlink:href="#be"/><use transform="matrix(0.05,0,0,0.05,5,0)" xlink:href="#bf"/><use transform="matrix(0.05,0,0,0.05,15,0)" xlink:href="#bi"/><use transform="matrix(0.05,0,0,0.05,18.95,0)" xlink:href="#bd"/></g><g id="w"><use transform="matrix(0.05,0,0,0.05,0,0)" xlink:href="#bk"/><use transform="matrix(0.05,0,0,0.05,10,0)" xlink:href="#bt"/><use transform="matrix(0.05,0,0,0.05,24.950000000000003,0)" xlink:href="#bi"/><use transform="matrix(0.05,0,0,0.05,28.900000000000002,0)" xlink:href="#bj"/><use transform="matrix(0.05,0,0,0.05,38.900000000000006,0)" xlink:href="#bp"/></g><g id="x"><use transform="matrix(0.05,0,0,0.05,0,0)" xlink:href="#bk"/><use transform="matrix(0.05,0,0,0.05,10,0)" xlink:href="#br"/><use transform="matrix(0.05,0,0,0.05,19,0)" xlink:href="#bi"/><use transform="matrix(0.05,0,0,0.05,22.95,0)" xlink:href="#bm"/></g><path fill="#fff" d="M27 0v-27h64v-190l-56 39v-29l58-41h29v221h61V0H27" id="bx"/><path fill="#fff" d="M101-251c68 0 85 55 85 127S166 4 100 4C33 4 14-52 14-124c0-73 17-127 87-127zm-1 229c47 0 54-49 54-102s-4-102-53-102c-51 0-55 48-55 102 0 53 5 102 54 102" id="by"/><path fill="#fff" d="M252-156c43 0 55 33 55 80 0 46-13 78-56 78-42 0-55-33-55-78 0-48 12-80 56-80zM93 0H65l162-248h28zM13-171c-1-47 13-79 56-79s55 33 55 79-13 79-55 79c-43 0-56-33-56-79zM251-17c28 0 30-29 30-59 0-31-1-60-29-60-29 0-31 29-31 60 0 29 2 59 30 59zM69-112c27 0 28-30 29-59 0-31-1-60-29-60-29 0-30 30-30 60s2 59 30 59" id="bz"/><g id="y"><use transform="matrix(0.05,0,0,0.05,0,0)" xlink:href="#bx"/><use transform="matrix(0.05,0,0,0.05,10,0)" xlink:href="#by"/><use transform="matrix(0.05,0,0,0.05,20,0)" xlink:href="#by"/><use transform="matrix(0.05,0,0,0.05,30,0)" xlink:href="#bz"/></g><g id="z"><use transform="matrix(0.05,0,0,0.05,0,0)" xlink:href="#br"/><use transform="matrix(0.05,0,0,0.05,9,0)" xlink:href="#bp"/><use transform="matrix(0.05,0,0,0.05,19,0)" xlink:href="#bj"/><use transform="matrix(0.05,0,0,0.05,29,0)" xlink:href="#bd"/><use transform="matrix(0.05,0,0,0.05,38,0)" xlink:href="#bg"/><use transform="matrix(0.05,0,0,0.05,48,0)" xlink:href="#bl"/><use transform="matrix(0.05,0,0,0.05,53.95,0)" xlink:href="#bo"/><use transform="matrix(0.05,0,0,0.05,62.95,0)" xlink:href="#bg"/><use transform="matrix(0.05,0,0,0.05,72.95,0)" xlink:href="#bm"/></g><g id="A"><use transform="matrix(0.05,0,0,0.05,0,0)" xlink:href="#bi"/><use transform="matrix(0.05,0,0,0.05,3.95,0)" xlink:href="#bj"/></g><g id="B"><use transform="matrix(0.05,0,0,0.05,0,0)" xlink:href="#be"/><use transform="matrix(0.05,0,0,0.05,5,0)" xlink:href="#bf"/><use transform="matrix(0.05,0,0,0.05,15,0)" xlink:href="#bg"/></g><path fill="#fff" d="M240 0l2-218c-23 76-54 145-80 218h-23L58-218 59 0H30v-248h44l77 211c21-75 51-140 76-211h43V0h-30" id="bA"/><path fill="#fff" d="M185-189c-5-48-123-54-124 2 14 75 158 14 163 119 3 78-121 87-175 55-17-10-28-26-33-46l33-7c5 56 141 63 141-1 0-78-155-14-162-118-5-82 145-84 179-34 5 7 8 16 11 25" id="bB"/><path fill="#fff" d="M205 0l-28-72H64L36 0H1l101-248h38L239 0h-34zm-38-99l-47-123c-12 45-31 82-46 123h93" id="bC"/><g id="C"><use transform="matrix(0.05,0,0,0.05,0,0)" xlink:href="#bA"/><use transform="matrix(0.05,0,0,0.05,14.950000000000001,0)" xlink:href="#bB"/><use transform="matrix(0.05,0,0,0.05,26.950000000000003,0)" xlink:href="#bC"/><use transform="matrix(0.05,0,0,0.05,38.95,0)" xlink:href="#bv"/></g><path fill="#999" d="M182-182c0 78-84 86-111 141h115V0H12c-6-101 99-100 120-180 1-22-12-31-33-32-23 0-32 14-35 34l-49-3c5-45 32-70 84-70 51 0 83 22 83 69" id="bD"/><use transform="matrix(0.07407407407407408,0,0,0.07407407407407408,0,0)" xlink:href="#bD" id="D"/><g id="E"><use transform="matrix(0.05,0,0,0.05,0,0)" xlink:href="#bl"/><use transform="matrix(0.05,0,0,0.05,5.95,0)" xlink:href="#bg"/><use transform="matrix(0.05,0,0,0.05,15.949999999999998,0)" xlink:href="#bd"/><use transform="matrix(0.05,0,0,0.05,24.95,0)" xlink:href="#bi"/><use transform="matrix(0.05,0,0,0.05,28.899999999999995,0)" xlink:href="#bm"/><use transform="matrix(0.05,0,0,0.05,38.9,0)" xlink:href="#bn"/><use transform="matrix(0.05,0,0,0.05,48.9,0)" xlink:href="#bg"/></g><g id="F"><use transform="matrix(0.05,0,0,0.05,0,0)" xlink:href="#bp"/><use transform="matrix(0.05,0,0,0.05,10,0)" xlink:href="#bo"/><use transform="matrix(0.05,0,0,0.05,19,0)" xlink:href="#bg"/><use transform="matrix(0.05,0,0,0.05,29,0)" xlink:href="#bl"/><use transform="matrix(0.05,0,0,0.05,34.95,0)" xlink:href="#bl"/><use transform="matrix(0.05,0,0,0.05,40.900000000000006,0)" xlink:href="#bg"/><use transform="matrix(0.05,0,0,0.05,50.900000000000006,0)" xlink:href="#bu"/><use transform="matrix(0.05,0,0,0.05,60.900000000000006,0)" xlink:href="#bl"/><use transform="matrix(0.05,0,0,0.05,66.85000000000001,0)" xlink:href="#bg"/><use transform="matrix(0.05,0,0,0.05,76.85000000000001,0)" xlink:href="#bd"/><use transform="matrix(0.05,0,0,0.05,85.85000000000001,0)" xlink:href="#bg"/><use transform="matrix(0.05,0,0,0.05,95.85000000000001,0)" xlink:href="#bj"/><use transform="matrix(0.05,0,0,0.05,105.85000000000001,0)" xlink:href="#be"/><use transform="matrix(0.05,0,0,0.05,110.85000000000001,0)" xlink:href="#bg"/><use transform="matrix(0.05,0,0,0.05,120.85000000000001,0)" xlink:href="#bm"/></g><g id="G"><use transform="matrix(0.05,0,0,0.05,0,0)" xlink:href="#bi"/><use transform="matrix(0.05,0,0,0.05,3.95,0)" xlink:href="#bj"/></g><path fill="#fff" d="M177-190C167-65 218 103 67 71c-23-6-38-20-44-43l32-5c15 47 100 32 89-28v-30C133-14 115 1 83 1 29 1 15-40 15-95c0-56 16-97 71-98 29-1 48 16 59 35 1-10 0-23 2-32h30zM94-22c36 0 50-32 50-73 0-42-14-75-50-75-39 0-46 34-46 75s6 73 46 73" id="bE"/><g id="H"><use transform="matrix(0.05,0,0,0.05,0,0)" xlink:href="#be"/><use transform="matrix(0.05,0,0,0.05,5,0)" xlink:href="#bk"/><use transform="matrix(0.05,0,0,0.05,15,0)" xlink:href="#bl"/><use transform="matrix(0.05,0,0,0.05,20.95,0)" xlink:href="#bE"/><use transform="matrix(0.05,0,0,0.05,30.950000000000003,0)" xlink:href="#bg"/><use transform="matrix(0.05,0,0,0.05,40.95,0)" xlink:href="#be"/></g><g id="I"><use transform="matrix(0.05,0,0,0.05,0,0)" xlink:href="#bd"/><use transform="matrix(0.05,0,0,0.05,9,0)" xlink:href="#bu"/><use transform="matrix(0.05,0,0,0.05,19,0)" xlink:href="#bk"/><use transform="matrix(0.05,0,0,0.05,29,0)" xlink:href="#br"/><use transform="matrix(0.05,0,0,0.05,38,0)" xlink:href="#bg"/></g><path fill="#fff" d="M101-234c-31-9-42 10-38 44h38v23H63V0H32v-167H5v-23h27c-7-52 17-82 69-68v24" id="bF"/><g id="J"><use transform="matrix(0.05,0,0,0.05,0,0)" xlink:href="#bp"/><use transform="matrix(0.05,0,0,0.05,10,0)" xlink:href="#bF"/></g><g id="K"><use transform="matrix(0.05,0,0,0.05,0,0)" xlink:href="#be"/><use transform="matrix(0.05,0,0,0.05,5,0)" xlink:href="#bf"/><use transform="matrix(0.05,0,0,0.05,15,0)" xlink:href="#bg"/></g><g id="L"><use transform="matrix(0.05,0,0,0.05,0,0)" xlink:href="#br"/><use transform="matrix(0.05,0,0,0.05,9,0)" xlink:href="#bp"/><use transform="matrix(0.05,0,0,0.05,19,0)" xlink:href="#bt"/><use transform="matrix(0.05,0,0,0.05,33.95,0)" xlink:href="#bu"/><use transform="matrix(0.05,0,0,0.05,43.95,0)" xlink:href="#bp"/><use transform="matrix(0.05,0,0,0.05,53.95,0)" xlink:href="#bn"/><use transform="matrix(0.05,0,0,0.05,63.95,0)" xlink:href="#bj"/><use transform="matrix(0.05,0,0,0.05,73.95,0)" xlink:href="#bm"/></g><g id="M"><use transform="matrix(0.05,0,0,0.05,0,0)" xlink:href="#br"/><use transform="matrix(0.05,0,0,0.05,9,0)" xlink:href="#bp"/><use transform="matrix(0.05,0,0,0.05,19,0)" xlink:href="#bt"/><use transform="matrix(0.05,0,0,0.05,33.95,0)" xlink:href="#bu"/><use transform="matrix(0.05,0,0,0.05,43.95,0)" xlink:href="#bk"/><use transform="matrix(0.05,0,0,0.05,53.95,0)" xlink:href="#bl"/><use transform="matrix(0.05,0,0,0.05,59.900000000000006,0)" xlink:href="#bg"/><use transform="matrix(0.05,0,0,0.05,69.9,0)" xlink:href="#bm"/></g><g id="N"><use transform="matrix(0.05,0,0,0.05,0,0)" xlink:href="#be"/><use transform="matrix(0.05,0,0,0.05,5,0)" xlink:href="#bp"/></g><g id="O"><use transform="matrix(0.05,0,0,0.05,0,0)" xlink:href="#bh"/><use transform="matrix(0.05,0,0,0.05,9,0)" xlink:href="#bi"/><use transform="matrix(0.05,0,0,0.05,12.949999999999998,0)" xlink:href="#bj"/><use transform="matrix(0.05,0,0,0.05,22.95,0)" xlink:href="#bp"/><use transform="matrix(0.05,0,0,0.05,32.95,0)" xlink:href="#bt"/><use transform="matrix(0.05,0,0,0.05,47.900000000000006,0)" xlink:href="#bg"/></g><path fill="#fff" d="M115-194c53 0 69 39 70 98 0 66-23 100-70 100C84 3 66-7 56-30L54 0H23l1-261h32v101c10-23 28-34 59-34zm-8 174c40 0 45-34 45-75 0-40-5-75-45-74-42 0-51 32-51 76 0 43 10 73 51 73" id="bG"/><path fill="#fff" d="M179-190L93 31C79 59 56 82 12 73V49c39 6 53-20 64-50L1-190h34L92-34l54-156h33" id="bH"/><g id="P"><use transform="matrix(0.05,0,0,0.05,0,0)" xlink:href="#bG"/><use transform="matrix(0.05,0,0,0.05,10,0)" xlink:href="#bH"/></g><use transform="matrix(0.05,0,0,0.05,0,0)" xlink:href="#bk" id="Q"/><g id="R"><use transform="matrix(0.05,0,0,0.05,0,0)" xlink:href="#bF"/><use transform="matrix(0.05,0,0,0.05,5,0)" xlink:href="#bk"/><use transform="matrix(0.05,0,0,0.05,15,0)" xlink:href="#br"/><use transform="matrix(0.05,0,0,0.05,24,0)" xlink:href="#be"/><use transform="matrix(0.05,0,0,0.05,29,0)" xlink:href="#bp"/><use transform="matrix(0.05,0,0,0.05,39,0)" xlink:href="#bl"/></g><path fill="#fff" d="M18-27v-27l151-64-151-65v-27l175 74v36" id="bI"/><path fill="#fff" d="M33 0v-38h34V0H33" id="bJ"/><path fill="#fff" d="M54-142c48-35 137-8 131 61C196 18 31 33 14-55l32-4c7 23 22 37 52 37 35-1 51-22 54-58 4-55-73-65-99-34H22l8-134h141v27H59" id="bK"/><g id="S"><use transform="matrix(0.05,0,0,0.05,0,0)" xlink:href="#bI"/><use transform="matrix(0.05,0,0,0.05,10.5,0)" xlink:href="#bx"/><use transform="matrix(0.05,0,0,0.05,20.5,0)" xlink:href="#bJ"/><use transform="matrix(0.05,0,0,0.05,25.5,0)" xlink:href="#bK"/><use transform="matrix(0.05,0,0,0.05,35.5,0)" xlink:href="#bv"/></g><path fill="#fff" d="M190 0L58-211 59 0H30v-248h39L202-35l-2-213h31V0h-41" id="bL"/><path fill="#fff" d="M30-248c118-7 216 8 213 122C240-48 200 0 122 0H30v-248zM63-27c89 8 146-16 146-99s-60-101-146-95v194" id="bM"/><g id="T"><use transform="matrix(0.05,0,0,0.05,0,0)" xlink:href="#bC"/><use transform="matrix(0.05,0,0,0.05,12,0)" xlink:href="#bL"/><use transform="matrix(0.05,0,0,0.05,24.950000000000003,0)" xlink:href="#bM"/></g><g id="U"><use transform="matrix(0.05,0,0,0.05,0,0)" xlink:href="#bM"/><use transform="matrix(0.05,0,0,0.05,12.950000000000001,0)" xlink:href="#bp"/><use transform="matrix(0.05,0,0,0.05,22.950000000000003,0)" xlink:href="#bg"/><use transform="matrix(0.05,0,0,0.05,32.95,0)" xlink:href="#bd"/></g><g id="V"><use transform="matrix(0.05,0,0,0.05,0,0)" xlink:href="#br"/><use transform="matrix(0.05,0,0,0.05,9,0)" xlink:href="#bp"/><use transform="matrix(0.05,0,0,0.05,19,0)" xlink:href="#bj"/><use transform="matrix(0.05,0,0,0.05,29,0)" xlink:href="#bo"/><use transform="matrix(0.05,0,0,0.05,38,0)" xlink:href="#bg"/><use transform="matrix(0.05,0,0,0.05,48,0)" xlink:href="#bH"/></g><g id="W"><use transform="matrix(0.05,0,0,0.05,0,0)" xlink:href="#bi"/><use transform="matrix(0.05,0,0,0.05,3.95,0)" xlink:href="#bj"/><use transform="matrix(0.05,0,0,0.05,13.949999999999998,0)" xlink:href="#br"/><use transform="matrix(0.05,0,0,0.05,22.95,0)" xlink:href="#bl"/><use transform="matrix(0.05,0,0,0.05,28.899999999999995,0)" xlink:href="#bg"/><use transform="matrix(0.05,0,0,0.05,38.9,0)" xlink:href="#bk"/><use transform="matrix(0.05,0,0,0.05,48.9,0)" xlink:href="#bd"/><use transform="matrix(0.05,0,0,0.05,57.900000000000006,0)" xlink:href="#bg"/><use transform="matrix(0.05,0,0,0.05,67.9,0)" xlink:href="#bm"/></g><g id="X"><use transform="matrix(0.05,0,0,0.05,0,0)" xlink:href="#bk"/><use transform="matrix(0.05,0,0,0.05,10,0)" xlink:href="#bF"/><use transform="matrix(0.05,0,0,0.05,14.65,0)" xlink:href="#bF"/><use transform="matrix(0.05,0,0,0.05,19.65,0)" xlink:href="#bi"/><use transform="matrix(0.05,0,0,0.05,23.599999999999998,0)" xlink:href="#bj"/><use transform="matrix(0.05,0,0,0.05,33.599999999999994,0)" xlink:href="#bi"/><use transform="matrix(0.05,0,0,0.05,37.55,0)" xlink:href="#be"/><use transform="matrix(0.05,0,0,0.05,42.55,0)" xlink:href="#bH"/></g><path fill="#fff" d="M87 75C49 33 22-17 22-94c0-76 28-126 65-167h31c-38 41-64 92-64 168S80 34 118 75H87" id="bN"/><path fill="#fff" d="M11-25l91-223h38l90 223V0H11v-25zm183-2l-74-195C99-153 70-92 46-27h148" id="bO"/><path fill="#fff" d="M194 0L95-120 63-95V0H30v-248h33v124l119-124h40L117-140 236 0h-42" id="bP"/><g id="Y"><use transform="matrix(0.05,0,0,0.05,0,0)" xlink:href="#bN"/><use transform="matrix(0.048148148148148155,0,0,0.048148148148148155,5.95,0)" xlink:href="#bO"/><use transform="matrix(0.048148148148148155,0,0,0.048148148148148155,17.505555555555556,0)" xlink:href="#bu"/><use transform="matrix(0.048148148148148155,0,0,0.048148148148148155,27.135185185185186,0)" xlink:href="#bP"/><use transform="matrix(0.03370370370370371,0,0,0.03370370370370371,38.69074074074074,2.4266666666666667)" xlink:href="#bM"/><use transform="matrix(0.03370370370370371,0,0,0.03370370370370371,47.42,-4.8533333333333335)" xlink:href="#bk"/><use transform="matrix(0.03370370370370371,0,0,0.03370370370370371,54.16074074074074,-4.8533333333333335)" xlink:href="#bu"/><use transform="matrix(0.03370370370370371,0,0,0.03370370370370371,60.90148148148148,-4.8533333333333335)" xlink:href="#bu"/></g><path fill="#fff" d="M11-41v-27l151-61-151-60v-27l175 69v36zm0 41v-25h175V0H11" id="bQ"/><use transform="matrix(0.048148148148148155,0,0,0.048148148148148155,0,0)" xlink:href="#bQ" id="Z"/><path fill="#fff" d="M33-261c38 41 65 92 65 168S71 34 33 75H2C39 34 66-17 66-93S39-220 2-261h31" id="bR"/><g id="aa"><use transform="matrix(0.048148148148148155,0,0,0.048148148148148155,0,0)" xlink:href="#by"/><use transform="matrix(0.048148148148148155,0,0,0.048148148148148155,9.629629629629632,0)" xlink:href="#bJ"/><use transform="matrix(0.048148148148148155,0,0,0.048148148148148155,14.444444444444446,0)" xlink:href="#bK"/><use transform="matrix(0.048148148148148155,0,0,0.048148148148148155,24.074074074074076,0)" xlink:href="#bR"/><use transform="matrix(0.048148148148148155,0,0,0.048148148148148155,29.803703703703707,0)" xlink:href="#bv"/></g><path fill="#999" d="M128-127c34 4 56 21 59 58 7 91-148 94-172 28-4-9-6-17-7-26l51-5c1 24 16 35 40 36 23 0 39-12 38-36-1-31-31-36-65-34v-40c32 2 59-3 59-33 0-20-13-33-34-33s-33 13-35 32l-50-3c6-44 37-68 86-68 50 0 83 20 83 66 0 35-22 52-53 58" id="bS"/><use transform="matrix(0.07407407407407408,0,0,0.07407407407407408,0,0)" xlink:href="#bS" id="ab"/><g id="ac"><use transform="matrix(0.05,0,0,0.05,0,0)" xlink:href="#bG"/><use transform="matrix(0.05,0,0,0.05,10,0)" xlink:href="#bk"/><use transform="matrix(0.05,0,0,0.05,20,0)" xlink:href="#br"/><use transform="matrix(0.05,0,0,0.05,29,0)" xlink:href="#bh"/><use transform="matrix(0.05,0,0,0.05,38,0)" xlink:href="#bG"/><use transform="matrix(0.05,0,0,0.05,48,0)" xlink:href="#bp"/><use transform="matrix(0.05,0,0,0.05,58,0)" xlink:href="#bj"/><use transform="matrix(0.05,0,0,0.05,68,0)" xlink:href="#bg"/></g><path fill="#fff" d="M141 0L90-78 38 0H4l68-98-65-92h35l48 74 47-74h35l-64 92 68 98h-35" id="bT"/><g id="ad"><use transform="matrix(0.05,0,0,0.05,0,0)" xlink:href="#bg"/><use transform="matrix(0.05,0,0,0.05,10,0)" xlink:href="#bT"/><use transform="matrix(0.05,0,0,0.05,19,0)" xlink:href="#bu"/><use transform="matrix(0.05,0,0,0.05,29,0)" xlink:href="#bp"/><use transform="matrix(0.05,0,0,0.05,39,0)" xlink:href="#bd"/><use transform="matrix(0.05,0,0,0.05,48,0)" xlink:href="#bg"/><use transform="matrix(0.05,0,0,0.05,58,0)" xlink:href="#bm"/><use transform="matrix(0.05,0,0,0.05,68,0)" xlink:href="#bv"/></g><path fill="#fff" d="M140-251c81 0 123 46 123 126C263-46 219 4 140 4 59 4 17-45 17-125s42-126 123-126zm0 227c63 0 89-41 89-101s-29-99-89-99c-61 0-89 39-89 99S79-25 140-24" id="bU"/><path fill="#fff" d="M233-177c-1 41-23 64-60 70L243 0h-38l-65-103H63V0H30v-248c88 3 205-21 203 71zM63-129c60-2 137 13 137-47 0-61-80-42-137-45v92" id="bV"/><g id="ae"><use transform="matrix(0.05,0,0,0.05,0,0)" xlink:href="#bU"/><use transform="matrix(0.05,0,0,0.05,14,0)" xlink:href="#bV"/></g><g id="af"><use transform="matrix(0.05,0,0,0.05,0,0)" xlink:href="#bc"/><use transform="matrix(0.05,0,0,0.05,5,0)" xlink:href="#bd"/></g><g id="ag"><use transform="matrix(0.05,0,0,0.05,0,0)" xlink:href="#bu"/><use transform="matrix(0.05,0,0,0.05,10,0)" xlink:href="#bp"/><use transform="matrix(0.05,0,0,0.05,20,0)" xlink:href="#bd"/><use transform="matrix(0.05,0,0,0.05,29,0)" xlink:href="#bi"/><use transform="matrix(0.05,0,0,0.05,32.95,0)" xlink:href="#be"/><use transform="matrix(0.05,0,0,0.05,37.95,0)" xlink:href="#bi"/><use transform="matrix(0.05,0,0,0.05,41.900000000000006,0)" xlink:href="#bp"/><use transform="matrix(0.05,0,0,0.05,51.900000000000006,0)" xlink:href="#bj"/></g><g id="ah"><use transform="matrix(0.05,0,0,0.05,0,0)" xlink:href="#br"/><use transform="matrix(0.05,0,0,0.05,9,0)" xlink:href="#bf"/><use transform="matrix(0.05,0,0,0.05,19,0)" xlink:href="#bg"/><use transform="matrix(0.05,0,0,0.05,29,0)" xlink:href="#bt"/><use transform="matrix(0.05,0,0,0.05,43.95,0)" xlink:href="#bi"/><use transform="matrix(0.05,0,0,0.05,47.900000000000006,0)" xlink:href="#br"/><use transform="matrix(0.05,0,0,0.05,56.900000000000006,0)" xlink:href="#bk"/><use transform="matrix(0.05,0,0,0.05,66.9,0)" xlink:href="#bq"/><use transform="matrix(0.05,0,0,0.05,70.85000000000001,0)" xlink:href="#bq"/><use transform="matrix(0.05,0,0,0.05,74.80000000000001,0)" xlink:href="#bH"/></g><g id="ai"><use transform="matrix(0.05,0,0,0.05,0,0)" xlink:href="#bj"/><use transform="matrix(0.05,0,0,0.05,10,0)" xlink:href="#bp"/><use transform="matrix(0.05,0,0,0.05,20,0)" xlink:href="#be"/></g><g id="aj"><use transform="matrix(0.05,0,0,0.05,0,0)" xlink:href="#be"/><use transform="matrix(0.05,0,0,0.05,5,0)" xlink:href="#bk"/><use transform="matrix(0.05,0,0,0.05,15,0)" xlink:href="#bl"/><use transform="matrix(0.05,0,0,0.05,20.95,0)" xlink:href="#bE"/><use transform="matrix(0.05,0,0,0.05,30.950000000000003,0)" xlink:href="#bg"/><use transform="matrix(0.05,0,0,0.05,40.95,0)" xlink:href="#be"/><use transform="matrix(0.05,0,0,0.05,45.95,0)" xlink:href="#bk"/><use transform="matrix(0.05,0,0,0.05,55.95,0)" xlink:href="#bG"/><use transform="matrix(0.05,0,0,0.05,65.95,0)" xlink:href="#bq"/><use transform="matrix(0.05,0,0,0.05,69.9,0)" xlink:href="#bg"/><use transform="matrix(0.05,0,0,0.05,79.9,0)" xlink:href="#bv"/></g><path fill="#999" d="M165-50V0h-47v-50H5v-38l105-160h55v161h33v37h-33zm-47-37l2-116L46-87h72" id="bW"/><use transform="matrix(0.07407407407407408,0,0,0.07407407407407408,0,0)" xlink:href="#bW" id="ak"/><g id="al"><use transform="matrix(0.05,0,0,0.05,0,0)" xlink:href="#bg"/><use transform="matrix(0.05,0,0,0.05,10,0)" xlink:href="#bT"/><use transform="matrix(0.05,0,0,0.05,19,0)" xlink:href="#bu"/><use transform="matrix(0.05,0,0,0.05,29,0)" xlink:href="#bp"/><use transform="matrix(0.05,0,0,0.05,39,0)" xlink:href="#bd"/><use transform="matrix(0.05,0,0,0.05,48,0)" xlink:href="#bn"/><use transform="matrix(0.05,0,0,0.05,58,0)" xlink:href="#bl"/><use transform="matrix(0.05,0,0,0.05,63.95,0)" xlink:href="#bg"/></g><g id="am"><use transform="matrix(0.05,0,0,0.05,0,0)" xlink:href="#bn"/><use transform="matrix(0.05,0,0,0.05,10,0)" xlink:href="#bj"/><use transform="matrix(0.05,0,0,0.05,20,0)" xlink:href="#bh"/><use transform="matrix(0.05,0,0,0.05,29,0)" xlink:href="#bj"/><use transform="matrix(0.05,0,0,0.05,39,0)" xlink:href="#bp"/><use transform="matrix(0.05,0,0,0.05,49,0)" xlink:href="#bs"/><use transform="matrix(0.05,0,0,0.05,61.95,0)" xlink:href="#bj"/><use transform="matrix(0.05,0,0,0.05,71.95,0)" xlink:href="#bv"/></g><g id="an"><use transform="matrix(0.05,0,0,0.05,0,0)" xlink:href="#br"/><use transform="matrix(0.05,0,0,0.05,9,0)" xlink:href="#bf"/><use transform="matrix(0.05,0,0,0.05,19,0)" xlink:href="#bg"/><use transform="matrix(0.05,0,0,0.05,29,0)" xlink:href="#bt"/><use transform="matrix(0.05,0,0,0.05,43.95,0)" xlink:href="#bi"/><use transform="matrix(0.05,0,0,0.05,47.900000000000006,0)" xlink:href="#br"/><use transform="matrix(0.05,0,0,0.05,56.900000000000006,0)" xlink:href="#bk"/><use transform="matrix(0.05,0,0,0.05,66.9,0)" xlink:href="#bq"/></g><g id="ao"><use transform="matrix(0.05,0,0,0.05,0,0)" xlink:href="#be"/><use transform="matrix(0.05,0,0,0.05,5,0)" xlink:href="#bk"/><use transform="matrix(0.05,0,0,0.05,15,0)" xlink:href="#bl"/><use transform="matrix(0.05,0,0,0.05,20.95,0)" xlink:href="#bE"/><use transform="matrix(0.05,0,0,0.05,30.950000000000003,0)" xlink:href="#bg"/><use transform="matrix(0.05,0,0,0.05,40.95,0)" xlink:href="#be"/><use transform="matrix(0.05,0,0,0.05,45.95,0)" xlink:href="#bk"/><use transform="matrix(0.05,0,0,0.05,55.95,0)" xlink:href="#bG"/><use transform="matrix(0.05,0,0,0.05,65.95,0)" xlink:href="#bi"/><use transform="matrix(0.05,0,0,0.05,69.9,0)" xlink:href="#bq"/><use transform="matrix(0.05,0,0,0.05,73.85000000000001,0)" xlink:href="#bi"/><use transform="matrix(0.05,0,0,0.05,77.80000000000001,0)" xlink:href="#be"/><use transform="matrix(0.05,0,0,0.05,82.80000000000001,0)" xlink:href="#bH"/></g><g id="ap"><use transform="matrix(0.05,0,0,0.05,0,0)" xlink:href="#bn"/><use transform="matrix(0.05,0,0,0.05,10,0)" xlink:href="#bj"/><use transform="matrix(0.05,0,0,0.05,20,0)" xlink:href="#bh"/><use transform="matrix(0.05,0,0,0.05,29,0)" xlink:href="#bj"/><use transform="matrix(0.05,0,0,0.05,39,0)" xlink:href="#bp"/><use transform="matrix(0.05,0,0,0.05,49,0)" xlink:href="#bs"/><use transform="matrix(0.05,0,0,0.05,61.95,0)" xlink:href="#bj"/><use transform="matrix(0.05,0,0,0.05,71.95,0)" xlink:href="#bv"/></g><path fill="#999" d="M139-81c0-46-55-55-73-27H18l9-140h149v37H72l-4 63c44-38 133-4 122 66C201 21 21 35 11-62l49-4c5 18 15 30 39 30 26 0 40-18 40-45" id="bX"/><use transform="matrix(0.07407407407407408,0,0,0.07407407407407408,0,0)" xlink:href="#bX" id="aq"/><path fill="#0c7cba" d="M135-194c53 0 70 44 70 98 0 56-19 98-73 100-31 1-45-17-59-34 3 33 2 69 2 105H25l-1-265h48c2 10 0 23 3 31 11-24 29-35 60-35zM114-30c33 0 39-31 40-66 0-38-9-64-40-64-56 0-55 130 0 130" id="bY"/><path fill="#0c7cba" d="M110-194c64 0 96 36 96 99 0 64-35 99-97 99-61 0-95-36-95-99 0-62 34-99 96-99zm-1 164c35 0 45-28 45-65 0-40-10-65-43-65-34 0-45 26-45 65 0 36 10 65 43 65" id="bZ"/><path fill="#0c7cba" d="M115-3C79 11 28 4 28-45v-112H4v-33h27l15-45h31v45h36v33H77v99c-1 23 16 31 38 25v30" id="ca"/><path fill="#0c7cba" d="M185-48c-13 30-37 53-82 52C43 2 14-33 14-96s30-98 90-98c62 0 83 45 84 108H66c0 31 8 55 39 56 18 0 30-7 34-22zm-45-69c5-46-57-63-70-21-2 6-4 13-4 21h74" id="cb"/><path fill="#0c7cba" d="M135-194c87-1 58 113 63 194h-50c-7-57 23-157-34-157-59 0-34 97-39 157H25l-1-190h47c2 12-1 28 3 38 12-26 28-41 61-42" id="cc"/><path fill="#0c7cba" d="M190-63c-7 42-38 67-86 67-59 0-84-38-90-98-12-110 154-137 174-36l-49 2c-2-19-15-32-35-32-30 0-35 28-38 64-6 74 65 87 74 30" id="cd"/><path fill="#0c7cba" d="M123 10C108 53 80 86 19 72V37c35 8 53-11 59-39L3-190h52l48 148c12-52 28-100 44-148h51" id="ce"/><g id="ar"><use transform="matrix(0.07407407407407408,0,0,0.07407407407407408,0,0)" xlink:href="#bY"/><use transform="matrix(0.07407407407407408,0,0,0.07407407407407408,16.222222222222225,0)" xlink:href="#bZ"/><use transform="matrix(0.07407407407407408,0,0,0.07407407407407408,32.44444444444445,0)" xlink:href="#ca"/><use transform="matrix(0.07407407407407408,0,0,0.07407407407407408,41.25925925925927,0)" xlink:href="#cb"/><use transform="matrix(0.07407407407407408,0,0,0.07407407407407408,56.07407407407408,0)" xlink:href="#cc"/><use transform="matrix(0.07407407407407408,0,0,0.07407407407407408,72.2962962962963,0)" xlink:href="#cd"/><use transform="matrix(0.07407407407407408,0,0,0.07407407407407408,87.11111111111113,0)" xlink:href="#ce"/></g><path fill="#ef8d22" d="M137-138c1-29-70-34-71-4 15 46 118 7 119 86 1 83-164 76-172 9l43-7c4 19 20 25 44 25 33 8 57-30 24-41C81-84 22-81 20-136c-2-80 154-74 161-7" id="cf"/><path fill="#ef8d22" d="M185-48c-13 30-37 53-82 52C43 2 14-33 14-96s30-98 90-98c62 0 83 45 84 108H66c0 31 8 55 39 56 18 0 30-7 34-22zm-45-69c5-46-57-63-70-21-2 6-4 13-4 21h74" id="cg"/><path fill="#ef8d22" d="M25 0v-261h50V0H25" id="ch"/><path fill="#ef8d22" d="M190-63c-7 42-38 67-86 67-59 0-84-38-90-98-12-110 154-137 174-36l-49 2c-2-19-15-32-35-32-30 0-35 28-38 64-6 74 65 87 74 30" id="ci"/><path fill="#ef8d22" d="M115-3C79 11 28 4 28-45v-112H4v-33h27l15-45h31v45h36v33H77v99c-1 23 16 31 38 25v30" id="cj"/><path fill="#ef8d22" d="M25-224v-37h50v37H25zM25 0v-190h50V0H25" id="ck"/><path fill="#ef8d22" d="M128 0H69L1-190h53L99-40l48-150h52" id="cl"/><path fill="#ef8d22" d="M123 10C108 53 80 86 19 72V37c35 8 53-11 59-39L3-190h52l48 148c12-52 28-100 44-148h51" id="cm"/><g id="as"><use transform="matrix(0.07407407407407408,0,0,0.07407407407407408,0,0)" xlink:href="#cf"/><use transform="matrix(0.07407407407407408,0,0,0.07407407407407408,14.814814814814817,0)" xlink:href="#cg"/><use transform="matrix(0.07407407407407408,0,0,0.07407407407407408,29.629629629629633,0)" xlink:href="#ch"/><use transform="matrix(0.07407407407407408,0,0,0.07407407407407408,37.03703703703704,0)" xlink:href="#cg"/><use transform="matrix(0.07407407407407408,0,0,0.07407407407407408,51.85185185185186,0)" xlink:href="#ci"/><use transform="matrix(0.07407407407407408,0,0,0.07407407407407408,66.66666666666667,0)" xlink:href="#cj"/><use transform="matrix(0.07407407407407408,0,0,0.07407407407407408,75.4814814814815,0)" xlink:href="#ck"/><use transform="matrix(0.07407407407407408,0,0,0.07407407407407408,82.8888888888889,0)" xlink:href="#cl"/><use transform="matrix(0.07407407407407408,0,0,0.07407407407407408,97.70370370370371,0)" xlink:href="#ck"/><use transform="matrix(0.07407407407407408,0,0,0.07407407407407408,105.11111111111113,0)" xlink:href="#cj"/><use transform="matrix(0.07407407407407408,0,0,0.07407407407407408,113.92592592592595,0)" xlink:href="#cm"/></g><path fill="#fff" d="M16-82v-28h88v28H16" id="cn"/><g id="at"><use transform="matrix(0.05,0,0,0.05,0,0)" xlink:href="#bh"/><use transform="matrix(0.05,0,0,0.05,9,0)" xlink:href="#bi"/><use transform="matrix(0.05,0,0,0.05,12.949999999999998,0)" xlink:href="#bj"/><use transform="matrix(0.05,0,0,0.05,22.95,0)" xlink:href="#bp"/><use transform="matrix(0.05,0,0,0.05,32.95,0)" xlink:href="#bt"/><use transform="matrix(0.05,0,0,0.05,47.900000000000006,0)" xlink:href="#bg"/><use transform="matrix(0.05,0,0,0.05,57.900000000000006,0)" xlink:href="#cn"/><use transform="matrix(0.05,0,0,0.05,63.85,0)" xlink:href="#bs"/><use transform="matrix(0.05,0,0,0.05,76.80000000000001,0)" xlink:href="#bi"/><use transform="matrix(0.05,0,0,0.05,80.75000000000001,0)" xlink:href="#bm"/><use transform="matrix(0.05,0,0,0.05,90.75000000000001,0)" xlink:href="#bg"/></g><g id="au"><use transform="matrix(0.05,0,0,0.05,0,0)" xlink:href="#br"/><use transform="matrix(0.05,0,0,0.05,9,0)" xlink:href="#bp"/><use transform="matrix(0.05,0,0,0.05,19,0)" xlink:href="#bj"/><use transform="matrix(0.05,0,0,0.05,29,0)" xlink:href="#bd"/><use transform="matrix(0.05,0,0,0.05,38,0)" xlink:href="#bg"/><use transform="matrix(0.05,0,0,0.05,48,0)" xlink:href="#bl"/><use transform="matrix(0.05,0,0,0.05,53.95,0)" xlink:href="#bo"/><use transform="matrix(0.05,0,0,0.05,62.95,0)" xlink:href="#bk"/><use transform="matrix(0.05,0,0,0.05,72.95,0)" xlink:href="#be"/><use transform="matrix(0.05,0,0,0.05,77.95,0)" xlink:href="#bi"/><use transform="matrix(0.05,0,0,0.05,81.9,0)" xlink:href="#bp"/><use transform="matrix(0.05,0,0,0.05,91.9,0)" xlink:href="#bj"/></g><g id="av"><use transform="matrix(0.048148148148148155,0,0,0.048148148148148155,0,0)" xlink:href="#bQ"/><use transform="matrix(0.048148148148148155,0,0,0.048148148148148155,9.485185185185186,0)" xlink:href="#bK"/><use transform="matrix(0.048148148148148155,0,0,0.048148148148148155,19.114814814814817,0)" xlink:href="#by"/><use transform="matrix(0.048148148148148155,0,0,0.048148148148148155,28.744444444444447,0)" xlink:href="#bz"/><use transform="matrix(0.05,0,0,0.05,44.15185185185186,0)" xlink:href="#bv"/></g><path fill="#999" d="M115-159c48 0 72 30 72 78 0 54-30 85-83 85-64 0-91-50-91-122 0-98 58-163 141-120 15 8 21 24 27 44l-47 6c-5-31-48-31-61-4-7 14-11 33-11 60 9-17 28-27 53-27zM102-35c24 0 36-20 36-45s-11-43-37-43c-23 0-36 14-36 38 0 27 11 50 37 50" id="co"/><use transform="matrix(0.07407407407407408,0,0,0.07407407407407408,0,0)" xlink:href="#co" id="aw"/></defs></g></svg>